<svg width="48" height="48" viewBox="0 0 48 48" fill="none" xmlns="http://www.w3.org/2000/svg">
<rect width="48" height="48" rx="8" fill="#D9D9D9"/>
<path d="M14.6314 16.5587C16.2603 16.5587 17.5809 15.2381 17.5809 13.6092C17.5809 11.9802 16.2603 10.6597 14.6314 10.6597C13.0024 10.6597 11.6819 11.9802 11.6819 13.6092C11.6819 15.2381 13.0024 16.5587 14.6314 16.5587Z" fill="#071013" fill-opacity="0.7"/>
<path d="M20.2821 18.7384H25.1704V20.9778C25.1704 20.9778 26.4969 18.3248 30.1061 18.3248C33.3256 18.3248 35.9927 19.9108 35.9927 24.7452V34.9395H30.9271V25.9804C30.9271 23.1286 29.4045 22.815 28.2444 22.815C25.8366 22.815 25.4244 24.8918 25.4244 26.3524V34.9395H20.2821V18.7384Z" fill="#071013" fill-opacity="0.7"/>
<path d="M12.0602 18.7384H17.2025V34.9395H12.0602V18.7384Z" fill="#071013" fill-opacity="0.7"/>
</svg>
