<svg width="105" height="24" viewBox="0 0 105 24" fill="none" xmlns="http://www.w3.org/2000/svg">
<path d="M0.975085 23.617C0.63466 23.617 0.464447 23.4468 0.464447 23.1064V8.48936C0.464447 8.14894 0.63466 7.97872 0.975085 7.97872H5.18785C5.507 7.97872 5.66657 8.15957 5.66657 8.52128L5.79423 10.0851C6.79423 8.42553 8.25168 7.59574 10.1666 7.59574C12.1453 7.59574 13.5921 8.46809 14.507 10.2128C15.5708 8.46809 17.1666 7.59574 19.2942 7.59574C21.0176 7.59574 22.3687 8.17021 23.3474 9.31915C24.3262 10.4468 24.8155 12.0319 24.8155 14.0745V23.1064C24.8155 23.4468 24.6453 23.617 24.3049 23.617H19.9644C19.624 23.617 19.4538 23.4468 19.4538 23.1064V15.3511C19.4538 13.4574 18.7623 12.5106 17.3793 12.5106C15.9964 12.5106 15.3049 13.4574 15.3049 15.3511V23.1064C15.3049 23.4468 15.1347 23.617 14.7942 23.617H10.5176C10.1347 23.617 9.94317 23.4468 9.94317 23.1064V15.3511C9.94317 13.4574 9.26232 12.5106 7.90062 12.5106C6.51764 12.5106 5.82615 13.4574 5.82615 15.3511V23.1064C5.82615 23.4468 5.65594 23.617 5.31551 23.617H0.975085Z" fill="#071013"/>
<path d="M34.5882 24C32.4605 24 30.7159 23.2234 29.3542 21.6702C27.9925 20.0957 27.3116 18.1383 27.3116 15.7979C27.3116 13.4787 27.9925 11.5319 29.3542 9.95745C30.7159 8.38298 32.4605 7.59574 34.5882 7.59574C36.6733 7.59574 38.2371 8.31915 39.2797 9.76596L39.3435 8.48936C39.3435 8.14894 39.5137 7.97872 39.8542 7.97872H43.8116C44.152 7.97872 44.3222 8.14894 44.3222 8.48936V23.1064C44.3222 23.2553 44.2691 23.383 44.1627 23.4894C44.0563 23.5745 43.9286 23.617 43.7797 23.617H39.8542C39.5137 23.617 39.3435 23.4468 39.3435 23.1064L39.2797 21.7979C38.152 23.266 36.5882 24 34.5882 24ZM33.4712 18.2234C34.0882 18.8404 34.8648 19.1489 35.801 19.1489C36.7371 19.1489 37.5031 18.8404 38.0988 18.2234C38.6946 17.6064 38.9925 16.7872 38.9925 15.766C38.9925 14.766 38.6946 13.9681 38.0988 13.3723C37.5244 12.7553 36.7584 12.4468 35.801 12.4468C34.8648 12.4468 34.0882 12.7553 33.4712 13.3723C32.8542 13.9894 32.5457 14.7979 32.5457 15.7979C32.5457 16.7979 32.8542 17.6064 33.4712 18.2234Z" fill="#071013"/>
<path d="M53.1086 23.617C52.832 23.617 52.6405 23.4894 52.5341 23.234L46.6937 8.52128C46.566 8.15957 46.7043 7.97872 47.1086 7.97872H51.5447C51.8426 7.97872 52.0447 8.10638 52.1511 8.3617L55.3107 17.4255L58.4384 8.3617C58.5235 8.10638 58.7362 7.97872 59.0767 7.97872H63.4809C63.8852 7.97872 64.0235 8.15957 63.8958 8.52128L58.0554 23.234C57.9703 23.4894 57.7788 23.617 57.4809 23.617H53.1086Z" fill="#071013"/>
<path d="M66.7684 23.617C66.428 23.617 66.2578 23.4468 66.2578 23.1064V8.48936C66.2578 8.14894 66.428 7.97872 66.7684 7.97872H70.9812C71.3003 7.97872 71.4599 8.15957 71.4599 8.52128L71.6195 10.6277C72.2152 8.60638 73.3003 7.59574 74.8748 7.59574C75.5131 7.59574 75.9918 7.73404 76.3109 8.01064C76.5237 8.15957 76.6301 8.39362 76.6301 8.71277V12.1596C76.6301 12.5213 76.4067 12.6596 75.9599 12.5745C75.428 12.4681 75.0343 12.4149 74.779 12.4149C73.8003 12.4149 73.0237 12.7128 72.4492 13.3085C71.8961 13.883 71.6195 14.7553 71.6195 15.9255V23.1064C71.6195 23.4468 71.4492 23.617 71.1088 23.617H66.7684Z" fill="#071013"/>
<path d="M83.9177 4.94681C83.3645 5.5 82.673 5.7766 81.8432 5.7766C81.0134 5.7766 80.3219 5.5 79.7687 4.94681C79.2155 4.39362 78.9389 3.70213 78.9389 2.87234C78.9389 2.06383 79.2155 1.38298 79.7687 0.829786C80.3219 0.276595 81.0134 0 81.8432 0C82.673 0 83.3645 0.276595 83.9177 0.829786C84.4708 1.38298 84.7474 2.06383 84.7474 2.87234C84.7474 3.68085 84.4708 4.37234 83.9177 4.94681ZM79.6411 23.617C79.3006 23.617 79.1304 23.4468 79.1304 23.1064V8.48936C79.1304 8.14894 79.3006 7.97872 79.6411 7.97872H84.0453C84.3857 7.97872 84.556 8.14894 84.556 8.48936V23.1064C84.556 23.4468 84.3857 23.617 84.0453 23.617H79.6411Z" fill="#071013"/>
<path d="M88.4294 23.617C88.0889 23.617 87.9187 23.4468 87.9187 23.1064V1.30851C87.9187 0.968084 88.0889 0.797871 88.4294 0.797871H92.8017C93.1421 0.797871 93.3124 0.968084 93.3124 1.30851V13.4043L97.4613 8.23404C97.6102 8.06383 97.8017 7.97872 98.0358 7.97872H102.919C103.153 7.97872 103.291 8.04255 103.334 8.17021C103.397 8.2766 103.355 8.42553 103.206 8.61702L98.0996 14.5532L104.036 23.0106C104.142 23.1809 104.163 23.3298 104.1 23.4574C104.057 23.5638 103.94 23.617 103.749 23.617H99.057C98.8017 23.617 98.6102 23.5213 98.4826 23.3298L94.9081 18.2553L93.3124 20.1383V23.1064C93.3124 23.4468 93.1421 23.617 92.8017 23.617H88.4294Z" fill="#071013"/>
<rect x="28.8049" y="1.27659" width="15.9574" height="3.82979" rx="1.91489" fill="#4047FF"/>
</svg>
