<svg width="48" height="48" viewBox="0 0 48 48" fill="none" xmlns="http://www.w3.org/2000/svg">
<rect width="48" height="48" rx="8" fill="#D9D9D9"/>
<path d="M24.0013 11C20.1991 11 19.7219 11.016 18.2286 11.0816C16.7382 11.1474 15.7208 11.3749 14.8306 11.7088C13.9098 12.0536 13.1287 12.5148 12.3506 13.2655C11.5718 14.0158 11.0935 14.769 10.7347 15.6567C10.3876 16.5153 10.1514 17.4966 10.0843 18.9332C10.0175 20.3732 10 20.8336 10 24.5C10 28.1664 10.0169 28.6251 10.0846 30.0651C10.1531 31.5023 10.3891 32.4833 10.735 33.3417C11.0929 34.2296 11.5712 34.9827 12.3497 35.7331C13.1276 36.4841 13.9087 36.9464 14.8289 37.2913C15.7196 37.6251 16.7373 37.8526 18.2274 37.9184C19.7208 37.984 20.1976 38 23.9996 38C27.8021 38 28.2778 37.984 29.7711 37.9184C31.2616 37.8526 32.2801 37.6251 33.1708 37.2913C34.0913 36.9464 34.8713 36.4841 35.6491 35.7331C36.4279 34.9827 36.9062 34.2296 37.265 33.3419C37.6092 32.4833 37.8454 31.502 37.9154 30.0654C37.9825 28.6254 38 28.1664 38 24.5C38 20.8336 37.9825 20.3735 37.9154 18.9335C37.8454 17.4963 37.6092 16.5153 37.265 15.6569C36.9062 14.769 36.4279 14.0158 35.6491 13.2655C34.8704 12.5145 34.0916 12.0533 33.17 11.7088C32.2774 11.3749 31.2595 11.1474 29.7691 11.0816C28.2757 11.016 27.8003 11 23.9969 11H24.0013ZM22.7454 13.4328C23.1181 13.4322 23.5341 13.4328 24.0013 13.4328C27.7393 13.4328 28.1824 13.4458 29.6585 13.5104C31.0236 13.5706 31.7644 13.7906 32.2579 13.9753C32.9112 14.22 33.377 14.5125 33.8667 14.985C34.3568 15.4575 34.6601 15.9075 34.9144 16.5375C35.1061 17.0128 35.3344 17.7272 35.3966 19.0435C35.4636 20.4666 35.4782 20.8941 35.4782 24.4969C35.4782 28.0997 35.4636 28.5272 35.3966 29.9503C35.3341 31.2666 35.1061 31.981 34.9144 32.4563C34.6607 33.0863 34.3568 33.5349 33.8667 34.0071C33.3767 34.4796 32.9115 34.7721 32.2579 35.0168C31.765 35.2024 31.0236 35.4218 29.6585 35.482C28.1827 35.5467 27.7393 35.5607 24.0013 35.5607C20.263 35.5607 19.8199 35.5467 18.3441 35.482C16.9791 35.4212 16.2382 35.2013 15.7444 35.0165C15.0911 34.7718 14.6244 34.4793 14.1344 34.0068C13.6444 33.5343 13.3411 33.0854 13.0867 32.4552C12.8951 31.9798 12.6667 31.2655 12.6046 29.9492C12.5375 28.5261 12.5241 28.0986 12.5241 24.4935C12.5241 20.8885 12.5375 20.4632 12.6046 19.0401C12.667 17.7238 12.8951 17.0095 13.0867 16.5336C13.3405 15.9036 13.6444 15.4536 14.1344 14.9811C14.6244 14.5086 15.0911 14.2161 15.7444 13.9708C16.2379 13.7852 16.9791 13.5658 18.3441 13.5054C19.6356 13.4491 20.1361 13.4323 22.7454 13.4294V13.4328ZM31.4745 15.6744C30.547 15.6744 29.7945 16.3992 29.7945 17.2938C29.7945 18.1882 30.547 18.9138 31.4745 18.9138C32.402 18.9138 33.1545 18.1882 33.1545 17.2938C33.1545 16.3994 32.402 15.6738 31.4745 15.6738V15.6744ZM24.0013 17.5672C20.0308 17.5672 16.8117 20.6713 16.8117 24.5C16.8117 28.3287 20.0308 31.4314 24.0013 31.4314C27.9718 31.4314 31.1898 28.3287 31.1898 24.5C31.1898 20.6713 27.9715 17.5672 24.001 17.5672H24.0013ZM24.0013 20C26.5785 20 28.668 22.0146 28.668 24.5C28.668 26.9851 26.5785 29 24.0013 29C21.4238 29 19.3346 26.9851 19.3346 24.5C19.3346 22.0146 21.4238 20 24.0013 20Z" fill="#071013" fill-opacity="0.7"/>
</svg>
