<svg width="261" height="87" viewBox="0 0 261 87" fill="none" xmlns="http://www.w3.org/2000/svg">
<rect width="261" height="87" fill="white"/>
<path d="M6.89 56C6.43667 56 6.21 55.7733 6.21 55.32V35.855C6.21 35.4017 6.43667 35.175 6.89 35.175H12.5C12.925 35.175 13.1375 35.4158 13.1375 35.8975L13.35 38.235C14.6817 35.855 16.665 34.665 19.3 34.665C21.51 34.665 23.3092 35.4442 24.6975 37.0025C26.1142 38.5608 26.8225 40.6575 26.8225 43.2925V55.32C26.8225 55.5183 26.7517 55.6883 26.61 55.83C26.4683 55.9433 26.2983 56 26.1 56H20.3625C19.9092 56 19.6825 55.7733 19.6825 55.32V45.0775C19.6825 42.4992 18.6342 41.21 16.5375 41.21C14.4125 41.21 13.35 42.4992 13.35 45.0775V55.32C13.35 55.7733 13.1233 56 12.67 56H6.89ZM33.0853 56C32.6319 56 32.4053 55.7733 32.4053 55.32V40.6575H29.9403C29.5153 40.6575 29.3028 40.4308 29.3028 39.9775V35.855C29.3028 35.4017 29.5153 35.175 29.9403 35.175H32.4053V32.5825C32.4053 27.4825 35.0403 24.9325 40.3103 24.9325C41.7553 24.9325 42.9878 25.2017 44.0078 25.74C44.2628 25.8533 44.3903 26.08 44.3903 26.42V31.18C44.3903 31.435 44.2061 31.5342 43.8378 31.4775C42.8178 31.3075 42.1944 31.2225 41.9678 31.2225C41.0611 31.2225 40.4378 31.4208 40.0978 31.8175C39.7578 32.1858 39.5878 32.7383 39.5878 33.475V35.175H43.7528C44.1778 35.175 44.3903 35.4017 44.3903 35.855V39.9775C44.3903 40.4308 44.1778 40.6575 43.7528 40.6575H39.5878V55.32C39.5878 55.7733 39.3611 56 38.9078 56H33.0853ZM56.9019 56.51C54.8619 56.51 53.1619 55.9858 51.8019 54.9375C50.4419 53.8608 49.7619 52.1325 49.7619 49.7525V40.6575H47.1694C46.7444 40.6575 46.5319 40.4308 46.5319 39.9775V35.855C46.5319 35.4017 46.7444 35.175 47.1694 35.175H49.7619V30.33C49.7619 29.8767 49.9885 29.65 50.4419 29.65H56.3069C56.7602 29.65 56.9869 29.8767 56.9869 30.33V35.175H60.0894C60.5427 35.175 60.7694 35.4017 60.7694 35.855V39.9775C60.7694 40.4308 60.5427 40.6575 60.0894 40.6575H56.9869V48.9875C56.9869 49.4975 57.1569 49.8942 57.4969 50.1775C57.8369 50.4608 58.2619 50.6025 58.7719 50.6025C59.2535 50.6025 59.6927 50.5883 60.0894 50.56C60.571 50.56 60.8119 50.7725 60.8119 51.1975V55.1075C60.8119 55.5892 60.401 55.9433 59.5794 56.17C58.786 56.3967 57.8935 56.51 56.9019 56.51ZM253.98 55.3625C253.187 56.1558 252.223 56.5525 251.09 56.5525C249.957 56.5525 248.979 56.1558 248.158 55.3625C247.364 54.5692 246.968 53.6058 246.968 52.4725C246.968 51.3108 247.364 50.3333 248.158 49.54C248.979 48.7183 249.957 48.3075 251.09 48.3075C252.223 48.3075 253.187 48.7183 253.98 49.54C254.773 50.3333 255.17 51.3108 255.17 52.4725C255.17 53.6058 254.773 54.5692 253.98 55.3625Z" fill="#4047FF"/>
<path d="M74.1529 56.51C70.9512 56.51 68.3021 55.4617 66.2054 53.365C64.1087 51.24 63.0604 48.605 63.0604 45.46C63.0604 42.4 64.0804 39.8358 66.1204 37.7675C68.1887 35.6992 70.7954 34.665 73.9404 34.665C77.4254 34.665 80.1454 35.9542 82.1004 38.5325C82.3554 38.8442 82.3271 39.1558 82.0154 39.4675L78.7429 42.6125C78.3462 43.0092 77.9637 43.0092 77.5954 42.6125C76.5754 41.6775 75.4704 41.21 74.2804 41.21C72.9204 41.21 71.8437 41.6208 71.0504 42.4425C70.2854 43.2642 69.9029 44.27 69.9029 45.46C69.9029 46.6783 70.2996 47.7408 71.0929 48.6475C71.9146 49.5258 73.0196 49.965 74.4079 49.965C75.5696 49.965 76.6462 49.4833 77.6379 48.52C78.0062 48.1517 78.3887 48.1658 78.7854 48.5625L82.0579 51.7075C82.3696 52.0192 82.3979 52.3308 82.1429 52.6425C80.1879 55.2208 77.5246 56.51 74.1529 56.51ZM94.9493 56.51C91.776 56.51 89.141 55.4617 87.0443 53.365C84.976 51.2683 83.9418 48.6758 83.9418 45.5875C83.9418 42.4992 84.976 39.9067 87.0443 37.81C89.141 35.7133 91.776 34.665 94.9493 34.665C98.0943 34.665 100.701 35.7133 102.769 37.81C104.866 39.9067 105.914 42.4992 105.914 45.5875C105.914 48.6758 104.866 51.2683 102.769 53.365C100.701 55.4617 98.0943 56.51 94.9493 56.51ZM94.9493 49.965C96.111 49.965 97.0885 49.5683 97.8818 48.775C98.6752 47.9817 99.0718 46.9192 99.0718 45.5875C99.0718 44.2558 98.6752 43.1933 97.8818 42.4C97.0885 41.6067 96.111 41.21 94.9493 41.21C93.7593 41.21 92.7677 41.6067 91.9743 42.4C91.181 43.1933 90.7843 44.2558 90.7843 45.5875C90.7843 46.9192 91.181 47.9817 91.9743 48.775C92.7677 49.5683 93.7593 49.965 94.9493 49.965ZM110.177 56C109.723 56 109.497 55.7733 109.497 55.32V35.855C109.497 35.4017 109.723 35.175 110.177 35.175H115.787C116.212 35.175 116.424 35.4158 116.424 35.8975L116.594 37.98C117.926 35.77 119.867 34.665 122.417 34.665C125.052 34.665 126.978 35.8267 128.197 38.15C129.613 35.8267 131.738 34.665 134.572 34.665C136.867 34.665 138.666 35.43 139.969 36.96C141.272 38.4617 141.924 40.5725 141.924 43.2925V55.32C141.924 55.7733 141.697 56 141.244 56H135.464C135.011 56 134.784 55.7733 134.784 55.32V44.9925C134.784 42.4708 133.863 41.21 132.022 41.21C130.18 41.21 129.259 42.4708 129.259 44.9925V55.32C129.259 55.7733 129.032 56 128.579 56H122.884C122.374 56 122.119 55.7733 122.119 55.32V44.9925C122.119 42.4708 121.212 41.21 119.399 41.21C117.557 41.21 116.637 42.4708 116.637 44.9925V55.32C116.637 55.7733 116.41 56 115.957 56H110.177ZM147.203 64.075C146.75 64.075 146.523 63.8483 146.523 63.395V35.855C146.523 35.4017 146.75 35.175 147.203 35.175H152.473C152.926 35.175 153.153 35.4017 153.153 35.855L153.238 37.555C154.626 35.6283 156.709 34.665 159.486 34.665C162.319 34.665 164.642 35.7133 166.456 37.81C168.269 39.9067 169.176 42.4992 169.176 45.5875C169.176 48.7042 168.269 51.3108 166.456 53.4075C164.642 55.4758 162.319 56.51 159.486 56.51C157.106 56.51 155.179 55.7308 153.706 54.1725V63.395C153.706 63.8483 153.479 64.075 153.026 64.075H147.203ZM154.811 48.8175C155.604 49.6392 156.624 50.05 157.871 50.05C159.117 50.05 160.151 49.6392 160.973 48.8175C161.795 47.9958 162.206 46.9192 162.206 45.5875C162.206 44.2558 161.795 43.1792 160.973 42.3575C160.151 41.5358 159.117 41.125 157.871 41.125C156.596 41.125 155.561 41.5358 154.768 42.3575C154.003 43.1508 153.621 44.2133 153.621 45.545C153.621 46.905 154.017 47.9958 154.811 48.8175ZM181.386 56.51C178.553 56.51 176.229 55.4758 174.416 53.4075C172.603 51.3108 171.696 48.7042 171.696 45.5875C171.696 42.4992 172.603 39.9067 174.416 37.81C176.229 35.7133 178.553 34.665 181.386 34.665C184.163 34.665 186.245 35.6283 187.634 37.555L187.719 35.855C187.719 35.4017 187.945 35.175 188.399 35.175H193.669C194.122 35.175 194.349 35.4017 194.349 35.855V55.32C194.349 55.5183 194.278 55.6883 194.136 55.83C193.994 55.9433 193.824 56 193.626 56H188.399C187.945 56 187.719 55.7733 187.719 55.32L187.634 53.5775C186.132 55.5325 184.049 56.51 181.386 56.51ZM179.899 48.8175C180.72 49.6392 181.754 50.05 183.001 50.05C184.248 50.05 185.268 49.6392 186.061 48.8175C186.854 47.9958 187.251 46.905 187.251 45.545C187.251 44.2133 186.854 43.1508 186.061 42.3575C185.296 41.5358 184.276 41.125 183.001 41.125C181.754 41.125 180.72 41.5358 179.899 42.3575C179.077 43.1792 178.666 44.2558 178.666 45.5875C178.666 46.9192 179.077 47.9958 179.899 48.8175ZM199.674 56C199.221 56 198.994 55.7733 198.994 55.32V35.855C198.994 35.4017 199.221 35.175 199.674 35.175H205.284C205.709 35.175 205.921 35.4158 205.921 35.8975L206.134 38.235C207.466 35.855 209.449 34.665 212.084 34.665C214.294 34.665 216.093 35.4442 217.481 37.0025C218.898 38.5608 219.606 40.6575 219.606 43.2925V55.32C219.606 55.5183 219.536 55.6883 219.394 55.83C219.252 55.9433 219.082 56 218.884 56H213.146C212.693 56 212.466 55.7733 212.466 55.32V45.0775C212.466 42.4992 211.418 41.21 209.321 41.21C207.196 41.21 206.134 42.4992 206.134 45.0775V55.32C206.134 55.7733 205.907 56 205.454 56H199.674ZM226.783 64.075C226.159 64.075 225.975 63.82 226.23 63.31L229.29 56L221.215 35.8975C221.045 35.4158 221.229 35.175 221.768 35.175H227.675C228.072 35.175 228.341 35.345 228.483 35.685L232.733 47.67L237.025 35.685C237.139 35.345 237.408 35.175 237.833 35.175H243.74C244.25 35.175 244.42 35.4158 244.25 35.8975L233.243 63.565C233.101 63.905 232.832 64.075 232.435 64.075H226.783Z" fill="#071013"/>
</svg>
