<svg width="48" height="48" viewBox="0 0 48 48" fill="none" xmlns="http://www.w3.org/2000/svg">
<rect width="48" height="48" rx="8" fill="#D9D9D9"/>
<path fill-rule="evenodd" clip-rule="evenodd" d="M35.2374 18.7241C35.2475 18.977 35.2509 19.2298 35.2509 19.4826C35.2509 27.1493 29.6796 36 19.4915 36C16.3619 36 13.4519 35.0345 11 33.3908C11.4334 33.4368 11.8736 33.4713 12.3205 33.4713C14.9154 33.4713 17.3053 32.5401 19.2011 30.9769C16.7774 30.9424 14.7307 29.2527 14.0249 26.9539C14.3638 27.0229 14.7127 27.0574 15.0696 27.0574C15.5728 27.0574 16.0614 26.9886 16.5297 26.8506C13.9934 26.3219 12.083 23.9771 12.083 21.161C12.083 21.1265 12.083 21.115 12.083 21.092C12.8305 21.5173 13.686 21.7815 14.5945 21.816C13.1063 20.77 12.128 18.9885 12.128 16.977C12.128 15.9195 12.4004 14.9194 12.88 14.0574C15.6111 17.5746 19.6942 19.885 24.2974 20.1264C24.2028 19.7011 24.1544 19.2529 24.1544 18.8047C24.1544 15.5978 26.6344 13 29.6942 13C31.2871 13 32.7258 13.7013 33.7356 14.8277C34.9998 14.5748 36.1842 14.0921 37.2559 13.4254C36.8405 14.7817 35.9635 15.9194 34.8175 16.6321C35.9387 16.4942 37.0082 16.184 38 15.7243C37.2559 16.8852 36.3192 17.908 35.2374 18.7241Z" fill="#071013" fill-opacity="0.7"/>
</svg>
